<?xml version="1.0" encoding="utf-8"?>
<!-- Generator: Adobe Illustrator 27.5.0, SVG Export Plug-In . SVG Version: 6.00 Build 0)  -->
<svg version="1.1" xmlns="http://www.w3.org/2000/svg" xmlns:xlink="http://www.w3.org/1999/xlink" x="0px" y="0px"
	 viewBox="0 0 2200 2200" style="enable-background:new 0 0 2200 2200;" xml:space="preserve">
<g id="background">
	<rect style="fill:#FFFFFF;" width="2200" height="2200"/>
</g>
<g id="Arrows">
	<g>
		<g>
			<path style="fill:#283A54;" d="M1708.93,738.339v145.94c0,181.917-32.412,339.692-96.326,468.913
				c-50.443,101.965-120.74,186.823-208.941,252.193c-79.113,58.64-158.562,90.707-211.279,107.28
				c-45.736,14.372-79.931,19.949-92.384,21.668c-12.453-1.719-46.648-7.296-92.384-21.668
				c-52.718-16.573-132.166-48.64-211.279-107.28c-88.201-65.37-158.499-150.228-208.941-252.193
				c-63.913-129.22-96.326-286.996-96.326-468.913V629.969c86.755-18.775,171.476-45.191,252.445-78.746
				c75.465-31.28,147.869-68.808,215.189-111.536c64.081-40.673,111.4-78.348,141.296-104.324
				c29.897,25.976,77.216,63.651,141.297,104.324c55.758,35.39,115.006,67.215,176.581,94.868l61.659-87.394
				c-62.529-26.941-122.595-58.483-178.814-93.915c-105.959-66.796-162.251-125.038-162.734-125.551l-37.769-40.191l-38.136,40.117
				c-0.556,0.587-56.848,58.829-162.807,125.625c-62.037,39.1-128.759,73.463-198.301,102.123
				c-86.765,35.777-178.248,62.739-271.901,80.151l-42.832,7.967V884.28c0,199.738,36.627,374.275,108.863,518.758
				c58.64,117.26,140.5,214.791,243.314,289.878c174.935,127.763,349.263,145.699,356.601,146.391l4.979,0.482l4.979-0.482
				c7.338-0.692,181.665-18.628,356.601-146.391c102.814-75.088,184.674-172.619,243.304-289.878
				c72.247-144.483,108.873-319.02,108.873-518.758V589.757L1708.93,738.339z"/>
			<path style="fill:#152435;" d="M1241.297,439.687c-63.924-40.579-111.169-78.17-141.076-104.135V187.504l37.769,40.191
				c0.482,0.514,56.774,58.756,162.734,125.551c56.219,35.432,116.285,66.974,178.814,93.915l-61.659,87.394
				C1356.302,506.902,1297.054,475.077,1241.297,439.687z"/>
			<path style="fill:#152435;" d="M1813.757,589.757V884.28c0,199.738-36.626,374.275-108.873,518.758
				c-58.63,117.26-140.489,214.791-243.304,289.878c-174.936,127.763-349.263,145.699-356.601,146.391l-4.759,0.461v-105.467
				c12.632-1.751,46.69-7.348,92.164-21.636c52.718-16.573,132.166-48.64,211.279-107.28
				c88.201-65.37,158.499-150.228,208.941-252.193c63.913-129.22,96.326-286.996,96.326-468.913v-145.94L1813.757,589.757z"/>
			<path style="fill:#35BA83;" d="M1056.738,1440.341l-307.043-254.015c-25.153-20.809-28.675-58.069-7.866-83.222l68.767-83.123
				c20.809-25.153,58.069-28.675,83.222-7.866l168.1,139.069l534.606-757.789c18.819-26.675,55.699-33.044,82.374-14.225
				l88.152,62.19c26.675,18.819,33.044,55.699,14.225,82.374l-638.559,905.139
				C1122.867,1457.007,1083.267,1462.289,1056.738,1440.341z"/>
		</g>
		<ellipse style="fill:#D9DEE2;" cx="1100.22" cy="1972.555" rx="288.694" ry="39.941"/>
	</g>
</g>
</svg>
